# xmcd
#
# Track frame offsets:
#	150
#	4925
#	24296
#	35719
#	52698
#	75122
#	88841
#	109885
#	120132
#	150635
#	158339
#	170319
#	182934
#	198207
#	210243
#	223561
#	235101
#	244693
#	263774
#	279226
#	288152
#	302445
#
# Disc length: 4246 seconds
#
# Revision: 655826973
# Processed by: cddbd v1.5.2PL0 Copyright (c) Steve Scherf et al.
# Submitted via: EZCDAudioConverter 9.0.7.1
#
DISCID=02109416
DTITLE=Taj Mahal - Giant Step - De Ole Folks At Home
DYEAR=1969
DGENRE=Blues
TTITLE0=Ain't Gwine Whistle Dixie Anymo'
TTITLE1=Take A Giant Step
TTITLE2=Give Your Woman What She Wants
TTITLE3=Good Morning Little School Girl
TTITLE4=You're Gonna Need Somebody On Your Bond
TTITLE5=Six Days On The Road
TTITLE6=Farther On Down The Road (You Will Accompany Me)
TTITLE7=Keep Your Hands Off Her
TTITLE8=Bacon Fat
TTITLE9=Linin'
TTITLE10=Country Blues #1
TTITLE11=Wild Ox Moan
TTITLE12=Light Rain Blues
TTITLE13=A Little Soulful Tune
TTITLE14=Candy Man
TTITLE15=Cluck Old Hen
TTITLE16=Colored Aristocracy
TTITLE17=Blind Boy Rag
TTITLE18=Stagger Lee
TTITLE19=Cajun Tune
TTITLE20=Fishin' Blues
TTITLE21=Annie's Lover
EXTD=
EXTT0=
EXTT1=
EXTT2=
EXTT3=
EXTT4=
EXTT5=
EXTT6=
EXTT7=
EXTT8=
EXTT9=
EXTT10=
EXTT11=
EXTT12=
EXTT13=
EXTT14=
EXTT15=
EXTT16=
EXTT17=
EXTT18=
EXTT19=
EXTT20=
EXTT21=
PLAYORDER=
